<?xml version="1.0" encoding="utf-8"?>
<!-- Generator: Adobe Illustrator 27.5.0, SVG Export Plug-In . SVG Version: 6.00 Build 0)  -->
<svg version="1.1" id="Layer_1" xmlns="http://www.w3.org/2000/svg" xmlns:xlink="http://www.w3.org/1999/xlink" x="0px" y="0px"
	 viewBox="0 0 612.526 76.595" style="enable-background:new 0 0 612.526 76.595;" xml:space="preserve">
<style type="text/css">
	.st0{fill:#F8F9FA;}
	.st1{fill:#F8F9F9;}
	.st2{fill:#989898;}
	.st3{fill:#999999;}
	.st4{fill:#FDF5F2;}
	.st5{fill:#989899;}
	.st6{fill:#F9F9FA;}
	.st7{fill:#FCF8EC;}
	.st8{fill:#FDF6E7;}
	.st9{fill:#FDF9EF;}
	.st10{fill:#F9F9F2;}
	.st11{fill:#F9FAF1;}
	.st12{fill:#FDF8EA;}
	.st13{fill:#FEF5E1;}
	.st14{fill:#FBF8EB;}
	.st15{fill:#FEF6E1;}
	.st16{fill:#FCF7E9;}
	.st17{fill:#FCF5DF;}
	.st18{fill:#FEF7E2;}
	.st19{fill:#FFF8E8;}
	.st20{fill:#FBF6E5;}
	.st21{fill:#F9F8EA;}
	.st22{fill:#FCF7E3;}
	.st23{fill:#FDF7E8;}
	.st24{fill:#FEF6E4;}
	.st25{fill:#FDF8E4;}
	.st26{fill:#FEF4DE;}
	.st27{fill:#FEF7E7;}
	.st28{fill:#FEFAEC;}
	.st29{fill:#FCF8EA;}
	.st30{fill:#FBFAEA;}
	.st31{fill:#FCF7E7;}
	.st32{fill:#FDF5E5;}
	.st33{fill:#FEF5E5;}
	.st34{fill:#F7F8F8;}
	.st35{fill:#FCF0CB;}
	.st36{fill:#FDF6E6;}
	.st37{fill:#FEF1D3;}
	.st38{fill:#FAF7E6;}
	.st39{fill:#FEF7E4;}
	.st40{fill:#F7FAEE;}
	.st41{fill:#FDF6E3;}
	.st42{fill:#FAF9E7;}
	.st43{fill:#FCF1D4;}
	.st44{fill:#F9F6E8;}
	.st45{fill:#FEF5E3;}
	.st46{fill:#FBF8E6;}
	.st47{fill:#FCF3D6;}
	.st48{fill:#F5E1AC;}
	.st49{fill:#FAF7EB;}
	.st50{fill:#FCF5DE;}
	.st51{fill:#FCF5E0;}
	.st52{fill:#FEF6E7;}
	.st53{fill:#FDF7E6;}
	.st54{fill:#FDF7E5;}
	.st55{fill:#FEF4D7;}
	.st56{fill:#FAEECA;}
	.st57{fill:#FAF8ED;}
	.st58{fill:#F4DE9D;}
	.st59{fill:#FCF1D3;}
	.st60{fill:#FDF3E3;}
	.st61{fill:#FEF5E2;}
	.st62{fill:#FBEABC;}
	.st63{fill:#FCF2D6;}
	.st64{fill:#FEF6E0;}
	.st65{fill:#FDF2D9;}
	.st66{fill:#FCF0CE;}
	.st67{fill:#FAF8E8;}
	.st68{fill:#FDF6DF;}
	.st69{fill:#FBEEC8;}
	.st70{fill:#FBF8E7;}
	.st71{fill:#FBE8C3;}
	.st72{fill:#FDF4DD;}
	.st73{fill:#FDF8E7;}
	.st74{fill:#FFF6DC;}
	.st75{fill:#FDFAEA;}
	.st76{fill:#FAF1D6;}
	.st77{fill:#FFF1D6;}
	.st78{fill:#FCF7E4;}
	.st79{fill:#D4D4D4;}
	.st80{fill:#F9EABC;}
	.st81{fill:#FDF8E9;}
	.st82{fill:#FDF4D7;}
	.st83{fill:#FEF5DE;}
	.st84{fill:#D5D5D5;}
	.st85{fill:#FDF3D7;}
	.st86{fill:#FBF0CB;}
	.st87{fill:#FDF6E4;}
	.st88{fill:#FCE8BA;}
	.st89{fill:#FDF4DA;}
	.st90{fill:#F7E8B8;}
	.st91{fill:#FEF8E1;}
	.st92{fill:#FBF1CC;}
	.st93{fill:#FEF2D2;}
	.st94{fill:#FDF3D9;}
	.st95{fill:#FBEBD0;}
	.st96{fill:#FEF2D5;}
	.st97{fill:#FBE8B8;}
	.st98{fill:#C7C6C6;}
	.st99{fill:#F7DFAA;}
	.st100{fill:#FCE9B5;}
	.st101{fill:#FCF5E1;}
	.st102{fill:#FDF3D3;}
	.st103{fill:#FCF0D2;}
	.st104{fill:#F6DFA5;}
	.st105{fill:#F9F5D3;}
	.st106{fill:#FDF5DF;}
	.st107{fill:#FEF6E3;}
	.st108{fill:#FEF3DA;}
	.st109{fill:#FAE6B8;}
	.st110{fill:#C5C5C4;}
	.st111{fill:#B9B9B8;}
	.st112{fill:#D2D2D2;}
	.st113{fill:#C2C2C2;}
	.st114{fill:#C9C8C8;}
	.st115{fill:#FAF8EC;}
	.st116{fill:#F9FAED;}
	.st117{fill:#FDF2D0;}
	.st118{fill:#F8EFC8;}
	.st119{fill:#FEF3D7;}
	.st120{fill:#F6E8B3;}
	.st121{fill:#FCF0D0;}
	.st122{fill:#FDF1CE;}
	.st123{fill:#F4DDA4;}
	.st124{fill:#F6E6B7;}
	.st125{fill:#F9EEC9;}
	.st126{fill:#F1E09D;}
	.st127{fill:#FFF5DD;}
	.st128{fill:#F8EEBB;}
	.st129{fill:#F3E1A1;}
	.st130{fill:#EEDC9D;}
	.st131{fill:#FFF6E5;}
	.st132{fill:#FCEFC7;}
	.st133{fill:#F8E5B4;}
	.st134{fill:#FDF1D6;}
	.st135{fill:#FBF4D4;}
	.st136{fill:#FBEFCD;}
	.st137{fill:#FEF7ED;}
	.st138{fill:#FFF8EA;}
	.st139{fill:#FFF0CD;}
	.st140{fill:#FFF5E0;}
	.st141{fill:#FDF3D6;}
	.st142{fill:#FCEFCB;}
	.st143{fill:#F3DB8E;}
	.st144{fill:#FCF2DD;}
	.st145{fill:#F4E3AC;}
	.st146{fill:#F8EDC4;}
	.st147{fill:#F8E8B6;}
	.st148{fill:#F4DB8D;}
	.st149{fill:#FCEFD0;}
	.st150{fill:#FAEFC6;}
	.st151{fill:#FCF5DA;}
	.st152{fill:#F6E5B7;}
	.st153{fill:#9E9E9E;}
	.st154{fill:#C4C4C3;}
	.st155{fill:#BCBBBB;}
	.st156{fill:#BABABA;}
	.st157{fill:#B9B9B9;}
	.st158{fill:#BDBDBD;}
	.st159{fill:#BBBBBB;}
	.st160{fill:#BEBEBE;}
	.st161{fill:#CBCBCA;}
	.st162{fill:#C0BFBF;}
	.st163{fill:#CAC9C9;}
	.st164{fill:#C6C5C5;}
	.st165{fill:#CFCECE;}
	.st166{fill:#C4C4C4;}
	.st167{fill:#BBBABA;}
	.st168{fill:#C3C3C3;}
	.st169{fill:#C1C1C1;}
	.st170{fill:#D2D3D2;}
	.st171{fill:#F7F7F8;}
	.st172{fill:#C8C8C8;}
	.st173{fill:#D3D3D3;}
	.st174{fill:#C7C7C6;}
	.st175{fill:#CBCACA;}
	.st176{fill:#CDCDCD;}
	.st177{fill:#C5C4C4;}
	.st178{fill:#BAB9B9;}
	.st179{fill:#C9C9C9;}
	.st180{fill:#D1D0D0;}
	.st181{fill:#C2C1C1;}
	.st182{fill:#D5D5D4;}
	.st183{fill:#FFF4E3;}
	.st184{fill:#F1DB9F;}
	.st185{fill:#F8E6C5;}
	.st186{fill:#FCEFCF;}
	.st187{fill:#FCF8F1;}
	.st188{fill:#F9FAF0;}
	.st189{fill:#FEF5DA;}
	.st190{fill:#FEF5D9;}
	.st191{fill:#FDF5E1;}
	.st192{fill:#FCF5D4;}
	.st193{fill:#F6E6AD;}
	.st194{fill:#9F9F9F;}
	.st195{fill:#BCBCBC;}
	.st196{fill:#C5C5C5;}
	.st197{fill:#DFDFDE;}
	.st198{fill:#C4C3C3;}
	.st199{fill:#C8C8C7;}
	.st200{fill:#C1C1C0;}
	.st201{fill:#D0D0D0;}
	.st202{fill:#D9D9D9;}
	.st203{fill:#BFBFBF;}
	.st204{fill:#C0C0C0;}
	.st205{fill:#CCCCCB;}
	.st206{fill:#B4B4B4;}
	.st207{fill:#BAB9BA;}
	.st208{fill:#C9C9C8;}
	.st209{fill:#CCCCCC;}
	.st210{fill:#FBF7E5;}
	.st211{fill:#F5E5BA;}
	.st212{fill:#F5DEA5;}
	.st213{fill:#FAE2AA;}
	.st214{fill:#FCEECB;}
	.st215{fill:#DBDADA;}
	.st216{fill:#D9D9D8;}
	.st217{fill:#A8A7A7;}
	.st218{fill:#E4E4E4;}
	.st219{fill:#CECECD;}
	.st220{fill:#C1C0C0;}
	.st221{fill:#C3C2C2;}
	.st222{fill:#FFEEDA;}
	.st223{fill:#F2DDA0;}
	.st224{fill:#FCE2BE;}
	.st225{fill:#FFEFDD;}
	.st226{fill:#FFF5DE;}
	.st227{fill:#F9DFBC;}
	.st228{fill:#FEEFC3;}
	.st229{fill:#F4D899;}
	.st230{fill:#D6D6D6;}
	.st231{fill:#E2E3E2;}
	.st232{fill:#DDDDDD;}
	.st233{fill:#FFF8EE;}
	.st234{fill:#F5E2A8;}
	.st235{fill:#FAF3CE;}
	.st236{fill:#F8EDCB;}
	.st237{fill:#FFF4D7;}
	.st238{fill:#FCF3DC;}
	.st239{fill:#FDF5D5;}
	.st240{fill:#F8E7B5;}
	.st241{fill:#F6E5B5;}
	.st242{fill:#F8ECD2;}
	.st243{fill:#F8F8E8;}
	.st244{fill:#FDF5DB;}
	.st245{fill:#FFF6E4;}
	.st246{fill:#F4E2A8;}
	.st247{fill:#F8EABA;}
	.st248{fill:#D3D2D2;}
	.st249{fill:#BEBDBD;}
	.st250{fill:#CECECE;}
	.st251{fill:#FBF0CE;}
	.st252{fill:#FCF5E7;}
	.st253{fill:#FEF2D0;}
	.st254{fill:#FDF8E6;}
	.st255{fill:#FCF3CA;}
	.st256{fill:#FAEDC7;}
	.st257{fill:#F5DCA0;}
	.st258{fill:#FAE8B3;}
	.st259{fill:#FEF6E2;}
	.st260{fill:#FCF0CD;}
	.st261{fill:#FCF4D6;}
	.st262{fill:#F8E3AD;}
	.st263{fill:#F7E4AD;}
	.st264{fill:#FCF4DD;}
	.st265{fill:#FCFAEC;}
	.st266{fill:#FEF1CF;}
	.st267{fill:#F8E4B9;}
	.st268{fill:#FBF4D7;}
	.st269{fill:#AEADAD;}
	.st270{fill:#C6C6C6;}
	.st271{fill:#FAF9F0;}
	.st272{fill:#FBF9EC;}
	.st273{fill:#FCF9E8;}
	.st274{fill:#FEF6DB;}
	.st275{fill:#FDF6DA;}
	.st276{fill:#F9E9BD;}
	.st277{fill:#FAF0C9;}
	.st278{fill:#FFF5D6;}
	.st279{fill:#F8EBB7;}
	.st280{fill:#FBF9EE;}
	.st281{fill:#FCF4D9;}
	.st282{fill:#FBF2D7;}
	.st283{fill:#FEF4DA;}
	.st284{fill:#FEF5D1;}
	.st285{fill:#FFF4E2;}
	.st286{fill:#FAF1CE;}
	.st287{fill:#FFF1CD;}
	.st288{fill:#D0D1D1;}
	.st289{fill:#D1D1D1;}
	.st290{fill:#DEDEDE;}
	.st291{fill:#CDCBCB;}
	.st292{fill:#CFCECD;}
	.st293{fill:#B1B0B0;}
	.st294{fill:#E4E5E4;}
	.st295{fill:#D8D9D8;}
	.st296{fill:#CACAC9;}
	.st297{fill:#F9F9F9;}
	.st298{fill:#F4F4F4;}
	.st299{fill:#BFBFBE;}
	.st300{fill:#FBF7E4;}
	.st301{fill:#F6E2AD;}
	.st302{fill:#FFF5D5;}
	.st303{fill:#FEF3DB;}
	.st304{fill:#FCF2D3;}
	.st305{fill:#FEF1CE;}
	.st306{fill:#DCDCDC;}
	.st307{fill:#FFF5E4;}
	.st308{fill:#F8E7BA;}
	.st309{fill:#F7E4C1;}
	.st310{fill:#FFF4D2;}
	.st311{fill:#FCF9EC;}
	.st312{fill:#FEF2D6;}
	.st313{fill:#BFBEBE;}
	.st314{fill:#FEF3D2;}
	.st315{fill:#F5E2A6;}
	.st316{fill:#FDF2CF;}
	.st317{fill:#FDF3DB;}
	.st318{fill:#F5ECCB;}
	.st319{fill:#F6E3AE;}
	.st320{fill:#FBF8E8;}
	.st321{fill:#FBF5E2;}
	.st322{fill:#FFF9E8;}
	.st323{fill:#A9A8A8;}
	.st324{fill:#FEF5DC;}
	.st325{fill:#FDF9EB;}
	.st326{fill:#FEF1D9;}
	.st327{fill:#C3C3C2;}
	.st328{fill:#DDDCDC;}
	.st329{fill:#DFDEDE;}
	.st330{fill:#FCF4E1;}
	.st331{fill:#FAEABD;}
	.st332{fill:#FAE7B8;}
	.st333{fill:#FCF7E6;}
	.st334{fill:#F6D588;}
	.st335{fill:#FAF8E4;}
	.st336{fill:#D4D4D3;}
	.st337{fill:#E7E7E7;}
	.st338{fill:#B1B1B2;}
	.st339{fill:#F4E3AB;}
	.st340{fill:#F7DB97;}
	.st341{fill:#FBECC2;}
	.st342{fill:#FEF2CF;}
	.st343{fill:#F6E1AC;}
	.st344{fill:#FCEDC4;}
	.st345{fill:#F7E2AB;}
	.st346{fill:#F5E6BD;}
	.st347{fill:#FBF8EA;}
	.st348{fill:#FCEECC;}
	.st349{fill:#FEF9EE;}
	.st350{fill:#F6E4B0;}
	.st351{fill:#FEECC5;}
	.st352{fill:#F6DFA6;}
	.st353{fill:#FBF1D7;}
	.st354{fill:#FAF0C7;}
	.st355{fill:#F9EAC0;}
	.st356{fill:#F7E7B3;}
	.st357{fill:#F8EABF;}
	.st358{fill:#F2DE9D;}
	.st359{fill:#F7E5BD;}
	.st360{fill:#F9EFD4;}
	.st361{fill:#F4E2AC;}
	.st362{fill:#F2DD8D;}
	.st363{fill:#FAEFD0;}
	.st364{fill:#F8EBBF;}
	.st365{fill:#F6EAB9;}
	.st366{fill:#F8EBC3;}
	.st367{fill:#FCF0CA;}
	.st368{fill:#FFEDBE;}
	.st369{fill:#FBF7E6;}
	.st370{fill:#FCF3D9;}
	.st371{fill:#FAF0CC;}
	.st372{fill:#CECDCD;}
	.st373{fill:#FFF4CD;}
	.st374{fill:#FEF4D9;}
	.st375{fill:#F5E4AF;}
	.st376{fill:#F8EDC8;}
	.st377{fill:#F2DC9F;}
	.st378{fill:#F6ECBE;}
	.st379{fill:#F8F0D0;}
	.st380{fill:#F3D992;}
	.st381{fill:#FBEDC9;}
	.st382{fill:#F9EEC5;}
	.st383{fill:#F6E6BC;}
	.st384{fill:#F8E3B9;}
	.st385{fill:#F2E1A4;}
	.st386{fill:#F6DEA3;}
	.st387{fill:#EFDA94;}
	.st388{fill:#F8E8BD;}
	.st389{fill:#FCEEC9;}
	.st390{fill:#F3E1B3;}
	.st391{fill:#FAF8E6;}
	.st392{fill:#FCEECD;}
	.st393{fill:#F5E6B4;}
	.st394{fill:#F8E4B6;}
	.st395{fill:#FBE7B7;}
	.st396{fill:#F5E8BC;}
	.st397{fill:#F5E1A9;}
	.st398{fill:#FCF1D0;}
	.st399{fill:#B0B0B0;}
	.st400{fill:#F6E6B2;}
	.st401{fill:#F6D88A;}
	.st402{fill:#F5E1A6;}
	.st403{fill:#F5D98E;}
	.st404{fill:#F6E8B6;}
	.st405{fill:#CBCBCB;}
	.st406{fill:#F1E1AD;}
	.st407{fill:#F6E3B0;}
	.st408{fill:#F4E4A4;}
	.st409{fill:#F6E0AA;}
	.st410{fill:#F4E0AB;}
	.st411{fill:#F4DC9A;}
	.st412{fill:#DCDCDB;}
	.st413{fill:#FAE8BC;}
	.st414{fill:#FCF2D1;}
	.st415{fill:#EFD899;}
	.st416{fill:#FFF7D9;}
	.st417{fill:#CDCCCC;}
	.st418{fill:#F6E4AD;}
	.st419{fill:#F5D98D;}
	.st420{fill:#F7EABE;}
	.st421{fill:#D7D6D6;}
	.st422{fill:#D7D7D6;}
	.st423{fill:#FAEFCA;}
	.st424{fill:#F5E2AB;}
	.st425{fill:#F7E8B6;}
	.st426{fill:#F4E0A3;}
	.st427{fill:#F2E0A2;}
	.st428{fill:#F5E2A3;}
	.st429{fill:#F8EAC5;}
	.st430{fill:#F3DD9C;}
	.st431{fill:#F5E2A9;}
	.st432{fill:#F9EDC6;}
	.st433{fill:#FBE8CA;}
	.st434{fill:#FFF3DD;}
	.st435{fill:#FDF0C9;}
	.st436{fill:#E0E0E0;}
	.st437{fill:#F3DC95;}
	.st438{fill:#F4DFA5;}
	.st439{fill:#FBEFC9;}
	.st440{fill:#F5DC96;}
	.st441{fill:#F9E7C0;}
	.st442{fill:#F5E1AA;}
	.st443{fill:#F8E5AC;}
	.st444{fill:#F3E1A4;}
	.st445{fill:#F7EEBC;}
	.st446{fill:#F7D890;}
	.st447{fill:#BDBCBC;}
	.st448{fill:#FAE6B7;}
	.st449{fill:#F8E4B3;}
	.st450{fill:#F7DA93;}
	.st451{fill:#FBE8BA;}
	.st452{fill:#F1DE9A;}
	.st453{fill:#F9E4B7;}
	.st454{fill:#F9E9C3;}
	.st455{fill:#F3D993;}
	.st456{fill:#F7E3B9;}
	.st457{fill:#F5F5F5;}
	.st458{fill:#E2E2E2;}
	.st459{fill:#F7D686;}
	.st460{fill:#FAD686;}
	.st461{fill:#F5DD9E;}
	.st462{fill:#F4DFA1;}
	.st463{fill:#F8E8B8;}
	.st464{fill:#F6DFAA;}
	.st465{fill:#F8E1AB;}
	.st466{fill:#F9E6B1;}
	.st467{fill:#F8DEA4;}
	.st468{fill:#FDF3D2;}
	.st469{fill:#F9E8B6;}
	.st470{fill:#F6E2AC;}
	.st471{fill:#F7E7B2;}
	.st472{fill:#F8E3AB;}
	.st473{fill:#FDF0C7;}
	.st474{fill:#C7C7C7;}
	.st475{fill:#C6C6C5;}
	.st476{fill:#D6D6D5;}
	.st477{fill:#F7D884;}
	.st478{fill:#F1E2AD;}
	.st479{fill:#F4E19B;}
	.st480{fill:#F0E196;}
	.st481{fill:#F5D888;}
	.st482{fill:#F6E1AA;}
	.st483{fill:#F5D890;}
	.st484{fill:#F6DA8E;}
	.st485{fill:#F3E1A3;}
	.st486{fill:#F3E1A9;}
	.st487{fill:#F5E5AC;}
	.st488{fill:#F0DDAC;}
	.st489{fill:#F6E1A4;}
	.st490{fill:#F4DA92;}
	.st491{fill:#FAEABF;}
	.st492{fill:#F2E2A1;}
	.st493{fill:#F2E0B0;}
	.st494{fill:#F9E6B8;}
	.st495{fill:#FBEEC2;}
	.st496{fill:#FDD679;}
	.st497{fill:#F3DA8D;}
	.st498{fill:#F2DC9B;}
	.st499{fill:#F6E1BA;}
	.st500{fill:#F5DD9A;}
	.st501{fill:#F2DB91;}
	.st502{fill:#F1DEA5;}
	.st503{fill:#F8EFC5;}
	.st504{fill:#F8ECB9;}
	.st505{fill:#F9D993;}
	.st506{fill:#FDE9B9;}
	.st507{fill:#F6E3AB;}
	.st508{fill:#F9E5B3;}
	.st509{fill:#F7E1A8;}
	.st510{fill:#F3DC8F;}
	.st511{fill:#F7D787;}
	.st512{fill:#F1DB96;}
	.st513{fill:#F6E1A7;}
	.st514{fill:#FBE9BA;}
	.st515{fill:#F4DA8E;}
	.st516{fill:#F1DDA3;}
	.st517{fill:#F5D889;}
	.st518{fill:#F8D78D;}
	.st519{fill:#F4DCA8;}
	.st520{fill:#F7E2AD;}
	.st521{fill:#F5E7B2;}
	.st522{fill:#FCECB8;}
	.st523{fill:#F6E4AE;}
	.st524{fill:#F7D68C;}
	.st525{fill:#FCEFCA;}
	.st526{fill:#F4DDA3;}
	.st527{fill:#F4DA94;}
	.st528{fill:#F6D88C;}
	.st529{fill:#CCCBCB;}
	.st530{fill:#F5E8AF;}
	.st531{fill:#C2C2C1;}
	.st532{fill:#F8D789;}
	.st533{fill:#F4E3A6;}
	.st534{fill:#A7A6A6;}
	.st535{fill:#F8D889;}
	.st536{fill:#FBE7B5;}
	.st537{fill:#FEEFC9;}
	.st538{fill:#D7D7D7;}
	.st539{fill:#F7D88E;}
	.st540{fill:#F5DCA5;}
	.st541{fill:#D0D0CF;}
	.st542{fill:#F5D88A;}
	.st543{fill:#F5D985;}
	.st544{fill:#F5DFA8;}
	.st545{fill:#F5DB91;}
	.st546{fill:#D1D1D0;}
	.st547{fill:#F3DA8E;}
	.st548{fill:#F7D88A;}
	.st549{fill:#F2D98B;}
	.st550{fill:#F4DB8B;}
	.st551{fill:#F9E7B0;}
	.st552{fill:#FAEDB9;}
	.st553{fill:#F5D88B;}
	.st554{fill:#FBF8ED;}
	.st555{fill:#FEF6E5;}
	.st556{fill:#F4E2AD;}
	.st557{fill:#FCF8E9;}
	.st558{fill:#FBF7E7;}
	.st559{fill:#FAF9ED;}
	.st560{fill:#F9F8E2;}
	.st561{fill:#FCEEC8;}
	.st562{fill:#FFF3D9;}
	.st563{fill:#F5DFA9;}
	.st564{fill:#FFF1CA;}
	.st565{fill:#FDF3DA;}
	.st566{fill:#F6D68E;}
	.st567{fill:#FAECC4;}
	.st568{fill:#F8E4B1;}
	.st569{fill:#FFF4DE;}
	.st570{fill:#FBEEC3;}
	.st571{fill:#F8E7BB;}
	.st572{fill:#FCF6E1;}
	.st573{fill:#F9F3D6;}
	.st574{fill:#FBF5DB;}
	.st575{fill:#FCEBCA;}
	.st576{fill:#F7E6B5;}
	.st577{fill:#FBF9EA;}
	.st578{fill:#FBF8DF;}
	.st579{fill:#F9DE98;}
	.st580{fill:#F9F0D1;}
	.st581{fill:#FDEBC1;}
	.st582{fill:#FCECC2;}
	.st583{fill:#F6E2B1;}
	.st584{fill:#F6E1AE;}
	.st585{fill:#F3DF9F;}
	.st586{fill:#F4DA8D;}
	.st587{fill:#FFF2CB;}
	.st588{fill:#F2E0B2;}
	.st589{fill:#F6DDAC;}
	.st590{fill:#F5DD9B;}
	.st591{fill:#FBF2C7;}
	.st592{fill:#FAEFC3;}
	.st593{fill:#F6DA81;}
	.st594{fill:#F5E2A2;}
	.st595{fill:#F9D688;}
	.st596{fill:#F4DC95;}
	.st597{fill:#F7DEA8;}
	.st598{fill:#FCD97F;}
	.st599{fill:#F2DCAA;}
	.st600{fill:#FEF4D4;}
	.st601{fill:#FCECC3;}
	.st602{fill:#FBEFC7;}
	.st603{fill:#F4D889;}
	.st604{fill:#F4E0A4;}
	.st605{fill:#F3D985;}
	.st606{fill:#F4DE9C;}
	.st607{fill:#F2DF9A;}
	.st608{fill:#F6DF9A;}
	.st609{fill:#F1DE9D;}
	.st610{fill:#F7E5AB;}
	.st611{fill:#F0DC86;}
	.st612{fill:#F1E1A0;}
	.st613{fill:#F5D884;}
	.st614{fill:#F2DF96;}
	.st615{fill:#F6D987;}
	.st616{fill:#F7DA8F;}
	.st617{fill:#F7E4B0;}
	.st618{fill:#F6E2A9;}
	.st619{fill:#FFF4D1;}
	.st620{fill:#F7E3AB;}
	.st621{fill:#FDF6DB;}
	.st622{fill:#FDF0CA;}
	.st623{fill:#F7D87C;}
	.st624{fill:#F4DC98;}
	.st625{fill:#F6DB94;}
	.st626{fill:#FEEDC1;}
	.st627{fill:#F7E5B3;}
	.st628{fill:#F7D98C;}
	.st629{fill:#F4E4B0;}
	.st630{fill:#F9E0AB;}
	.st631{fill:#F3D98B;}
	.st632{fill:#FDEECD;}
	.st633{fill:#F7DD9B;}
	.st634{fill:#D8D8D7;}
	.st635{fill:#A4A4A3;}
	.st636{fill:#A5A5A4;}
	.st637{fill:#F9E8C5;}
	.st638{fill:#F9E7C5;}
	.st639{fill:#F4D97A;}
	.st640{fill:#F5D97B;}
	.st641{fill:#F1DC9E;}
	.st642{fill:#FCF0C6;}
	.st643{fill:#F3E2A4;}
	.st644{fill:#F6DA91;}
	.st645{fill:#F9E8B7;}
	.st646{fill:#FFF2CE;}
	.st647{fill:#FBEDBA;}
	.st648{fill:#F8EAB9;}
	.st649{fill:#F8EBBD;}
	.st650{fill:#F4EDBB;}
	.st651{fill:#F5D988;}
	.st652{fill:#F7D784;}
	.st653{fill:#ADADAD;}
	.st654{fill:#F6E3A7;}
	.st655{fill:#F9E8B9;}
	.st656{fill:#FDEBC7;}
	.st657{fill:#F8E2AA;}
	.st658{fill:#F2D992;}
	.st659{fill:#F9FAFA;}
	.st660{fill:#CFCFCF;}
	.st661{fill:#AEAEAE;}
	.st662{fill:#ABAAAA;}
	.st663{fill:#B8B8B8;}
	.st664{fill:#F6DB99;}
	.st665{fill:#F7E1AA;}
	.st666{fill:#A3A3A3;}
	.st667{fill:#AFAFAF;}
	.st668{fill:#A2A2A2;}
	.st669{fill:#F7E3B0;}
	.st670{fill:#F2DD97;}
	.st671{fill:#F8E6BB;}
	.st672{fill:#FCF1D1;}
	.st673{fill:#F5DFAA;}
	.st674{fill:#FAE3B6;}
	.st675{fill:#F6D988;}
	.st676{fill:#F4D988;}
	.st677{fill:#F6E1AB;}
	.st678{fill:#F6D889;}
	.st679{fill:#F5DC95;}
	.st680{fill:#F2DC9A;}
	.st681{fill:#F2DE9C;}
	.st682{fill:#F8EDBF;}
	.st683{fill:#FAECC0;}
	.st684{fill:#F2DD8C;}
	.st685{fill:#FCEBC2;}
	.st686{fill:#F4DD9B;}
	.st687{fill:#F4E1A3;}
	.st688{fill:#FDF3CF;}
	.st689{fill:#F7D980;}
	.st690{fill:#F5E3A9;}
	.st691{fill:#FBE4B9;}
	.st692{fill:#FAF2D0;}
	.st693{fill:#F5D686;}
	.st694{fill:#F6DDA6;}
	.st695{fill:#F5DAA4;}
	.st696{fill:#FAE8BB;}
	.st697{fill:#F7EEC8;}
	.st698{fill:#F4E1A9;}
	.st699{fill:#B3B3B3;}
	.st700{fill:#FDF3CC;}
	.st701{fill:#F2E0A5;}
	.st702{fill:#F5DC94;}
	.st703{fill:#F7E1A4;}
	.st704{fill:#F6DFA3;}
	.st705{fill:#F3DE9B;}
	.st706{fill:#D8D7D7;}
	.st707{fill:#FBF1D0;}
	.st708{fill:#F6E7B3;}
	.st709{fill:#FCEBBA;}
	.st710{fill:#FDF5D0;}
	.st711{fill:#F2DC97;}
	.st712{fill:#F1DC94;}
	.st713{fill:#F8D67E;}
	.st714{fill:#F3DD99;}
	.st715{fill:#F5E29C;}
	.st716{fill:#F7E0A9;}
	.st717{fill:#F4E09D;}
	.st718{fill:#F5DF9B;}
	.st719{fill:#F9E4B6;}
	.st720{fill:#F8E2A8;}
	.st721{fill:#F4D98A;}
	.st722{fill:#F4E09E;}
	.st723{fill:#F8E6B5;}
	.st724{fill:#A4A4A5;}
	.st725{fill:#ACACAC;}
	.st726{fill:#A2A1A1;}
	.st727{fill:#F6E4AA;}
	.st728{fill:#FAEFC9;}
	.st729{fill:#F6D989;}
	.st730{fill:#F7E2A9;}
	.st731{fill:#F3DEA2;}
	.st732{fill:#F2E2B0;}
	.st733{fill:#F5E4AB;}
	.st734{fill:#F5D989;}
	.st735{fill:#FCD581;}
	.st736{fill:#F4DB76;}
	.st737{fill:#F4D78B;}
	.st738{fill:#F7D889;}
	.st739{fill:#FAE5A8;}
	.st740{fill:#FAEBC2;}
	.st741{fill:#FAE9BD;}
	.st742{fill:#F7E4AA;}
	.st743{fill:#FDF0D1;}
	.st744{fill:#F6D888;}
	.st745{fill:#F9E3A9;}
	.st746{fill:#F7E1AC;}
	.st747{fill:#FDF0CE;}
	.st748{fill:#F6D78B;}
	.st749{fill:#F4E2A7;}
	.st750{fill:#F6E1A2;}
	.st751{fill:#F5D885;}
	.st752{fill:#F7E3AC;}
	.st753{fill:#F0D88E;}
	.st754{fill:#FCEFC5;}
	.st755{fill:#FAECBD;}
	.st756{fill:#F4DD9E;}
	.st757{fill:#F6E2AF;}
	.st758{fill:#F6E2A7;}
	.st759{fill:#F6E5B1;}
	.st760{fill:#FEF1CB;}
	.st761{fill:#F6DE9F;}
	.st762{fill:#F4E3AE;}
	.st763{fill:#F1DB9B;}
	.st764{fill:#FBF3D6;}
	.st765{fill:#F8DA8D;}
	.st766{fill:#F4E6B4;}
	.st767{fill:#FAE6BC;}
	.st768{fill:#F5DB92;}
	.st769{fill:#F4DA86;}
	.st770{fill:#F3E0A3;}
	.st771{fill:#F4D985;}
	.st772{fill:#F4E0A0;}
	.st773{fill:#F5D997;}
	.st774{fill:#F5D894;}
	.st775{fill:#F5DEA1;}
	.st776{fill:#F2DA94;}
	.st777{fill:#F5D88E;}
	.st778{fill:#F9D979;}
	.st779{fill:#F3DB82;}
	.st780{fill:#F5DC8B;}
	.st781{fill:#F3DB93;}
	.st782{fill:#F5DE92;}
	.st783{fill:#F9ECC4;}
	.st784{fill:#F9D786;}
	.st785{fill:#C4C3C2;}
	.st786{fill:#EFDB92;}
	.st787{fill:#FAD874;}
	.st788{fill:#F6D886;}
	.st789{fill:#F3DB84;}
	.st790{fill:#F7DA7C;}
	.st791{fill:#F6D87F;}
	.st792{fill:#F6E6B0;}
	.st793{fill:#FBEFC1;}
	.st794{fill:#F5D98C;}
	.st795{fill:#F7D886;}
	.st796{fill:#F5DDA1;}
	.st797{fill:#FDD87F;}
	.st798{fill:#F2D986;}
	.st799{fill:#F2DB94;}
	.st800{fill:#F8D890;}
	.st801{fill:#F8D77C;}
	.st802{fill:#F6DA7B;}
	.st803{fill:#F6DA92;}
	.st804{fill:#FBD789;}
	.st805{fill:#F5D986;}
	.st806{fill:#F4DA89;}
	.st807{fill:#F8D689;}
	.st808{fill:#FEDA91;}
	.st809{fill:#FFD87F;}
	.st810{fill:#F7DB89;}
	.st811{fill:#F8D687;}
	.st812{fill:#FBD77A;}
	.st813{fill:#F5E6AA;}
	.st814{fill:#F7D67F;}
	.st815{fill:#F3D98E;}
	.st816{fill:#FDD77F;}
	.st817{fill:#FAD578;}
	.st818{fill:#FED880;}
	.st819{fill:#FED685;}
	.st820{fill:#F9DC9B;}
	.st821{fill:#F8D786;}
	.st822{fill:#F5DA84;}
	.st823{fill:#F5D98A;}
	.st824{fill:#FDD581;}
	.st825{fill:#FED881;}
	.st826{fill:#F7D783;}
	.st827{fill:#F6D887;}
	.st828{fill:#FFD482;}
	.st829{fill:#F4D78A;}
	.st830{fill:#F3D884;}
	.st831{fill:#FAD889;}
	.st832{fill:#F6D98C;}
	.st833{fill:#F9E6B2;}
	.st834{fill:#F3D98C;}
	.st835{fill:#F3DB86;}
	.st836{fill:#F4D888;}
	.st837{fill:#F6D986;}
	.st838{fill:#F9E1AB;}
	.st839{fill:#F4DE98;}
	.st840{fill:#F2DB90;}
	.st841{fill:#F4D88C;}
	.st842{fill:#F9E7AE;}
	.st843{fill:#F4DEA0;}
	.st844{fill:#F7DFA2;}
	.st845{fill:#F6E2A5;}
	.st846{fill:#F4E29F;}
	.st847{fill:#F3D991;}
	.st848{fill:#F8E6A8;}
	.st849{fill:#F1DC99;}
	.st850{fill:#F6D893;}
	.st851{fill:#F8DB94;}
	.st852{fill:#F8E0A3;}
	.st853{fill:#F4DB92;}
	.st854{fill:#F9E7AF;}
	.st855{fill:#F7E9BB;}
	.st856{fill:#F5E8B0;}
	.st857{fill:#FAE6B9;}
	.st858{fill:#F6EBC1;}
	.st859{fill:#F5E3AC;}
	.st860{fill:#F3E1A5;}
	.st861{fill:#FEF4D6;}
	.st862{fill:#F5DFA5;}
	.st863{fill:#F8E8BA;}
	.st864{fill:#F3E1A6;}
	.st865{fill:#F5E5B2;}
	.st866{fill:#F6E6B5;}
	.st867{fill:#FBF0CD;}
	.st868{fill:#FAE8BD;}
	.st869{fill:#F7DAA1;}
	.st870{fill:#F8EDC6;}
	.st871{fill:#F4DC94;}
	.st872{fill:#F6E6B3;}
	.st873{fill:#F4E5B2;}
	.st874{fill:#F6E5B2;}
	.st875{fill:#FEF2CE;}
	.st876{fill:#F4E19E;}
	.st877{fill:#F8E4AC;}
	.st878{fill:#F3DC96;}
	.st879{fill:#FDE1AE;}
	.st880{fill:#F6DDA9;}
	.st881{fill:#FBE7BD;}
	.st882{fill:#F8F5DF;}
	.st883{fill:#F6D78C;}
	.st884{fill:#FDEDC1;}
	.st885{fill:#F9E4AD;}
	.st886{fill:#F7E9B4;}
	.st887{fill:#F5E2AA;}
	.st888{fill:#F6E3AC;}
	.st889{fill:#F9D974;}
	.st890{fill:#FED679;}
	.st891{fill:#F5D987;}
	.st892{fill:#F9DA92;}
	.st893{fill:#F1D992;}
	.st894{fill:#F9E7AB;}
	.st895{fill:#F9D582;}
	.st896{fill:#FDF7E2;}
	.st897{fill:#FEF6D3;}
	.st898{fill:#F0DB98;}
	.st899{fill:#F3DDAC;}
	.st900{fill:#F7DA7A;}
	.st901{fill:#F4DC92;}
	.st902{fill:#FDD77E;}
	.st903{fill:#FCD982;}
	.st904{fill:#FDD77A;}
	.st905{fill:#F4DB87;}
	.st906{fill:#F6DB79;}
	.st907{fill:#FEFEF9;}
	.st908{fill:#F2DC96;}
	.st909{fill:#FFFAE1;}
	.st910{fill:#F5E6AD;}
	.st911{fill:#FBF0C7;}
	.st912{fill:#F0DC9C;}
	.st913{fill:#FBECB6;}
	.st914{fill:#F2D894;}
	.st915{fill:#F1DB8E;}
	.st916{fill:#FEFDF7;}
	.st917{fill:#F4DC90;}
	.st918{fill:#FCEFC9;}
	.st919{fill:#FEF2CD;}
	.st920{fill:#F4E0A1;}
	.st921{fill:#FDD778;}
	.st922{fill:#FAD77F;}
	.st923{fill:#FBD976;}
	.st924{fill:#F3E09B;}
	.st925{fill:#F9DB9A;}
	.st926{fill:#FEF2CC;}
	.st927{fill:#FEF3D9;}
	.st928{fill:#FCD679;}
	.st929{fill:#FEFDF4;}
	.st930{fill:#F8E9BB;}
	.st931{fill:#FAF8D6;}
	.st932{fill:#FCD778;}
	.st933{fill:#F6DD9C;}
	.st934{fill:#F3DE9C;}
	.st935{fill:#FAF7F3;}
	.st936{fill:#FEF6DA;}
	.st937{opacity:0.11;}
	.st938{fill:#FFFFFF;}
	.st939{fill:#E83895;}
	.st940{fill:#F1F5D7;}
</style>
<g>
	<path class="st940" d="M62.061,14.531c-2.906-4.589-6.796-8.108-11.626-10.599c-4.851-2.469-10.271-3.715-16.236-3.715
		c-5.9,0-10.992,1.136-15.297,3.387c-4.305,2.272-7.845,5.31-10.664,9.134c-2.797,3.824-4.873,8.107-6.228,12.827
		C0.677,30.308,0,35.16,0,40.098c0,4.239,0.175,8.5,0.546,12.783c0.371,4.305,1.093,8.26,2.185,11.866
		c1.093,3.605,2.666,6.49,4.698,8.632c2.032,2.142,4.698,3.212,7.976,3.212c2.841,0,5.048-0.481,6.621-1.464
		c1.551-0.984,2.644-2.251,3.278-3.824c0.612-1.574,0.896-3.257,0.874-5.092c-0.044-1.814-0.24-3.605-0.612-5.354
		c3.212,1.311,6.665,2.032,10.38,2.142c3.715,0.109,7.386-0.459,10.992-1.705c3.584-1.224,6.862-3.147,9.834-5.726
		c2.95-2.578,5.288-5.922,7.037-10.008c1.748-4.065,2.622-8.96,2.622-14.641C66.432,24.583,64.968,19.12,62.061,14.531z
		 M36.21,22.856c0.284-0.656,0.634-1.267,1.136-1.792c0.35-0.371,0.787-0.655,1.267-0.83c0.721-0.284,1.508-0.087,2.054,0.503
		c0.459,0.503,0.721,1.093,0.83,1.77c0.044,0.349,0.066,0.721,0.087,1.071c0.022,1.202-0.262,2.317-0.918,3.322
		c-0.284,0.437-0.612,0.852-1.049,1.18c-0.918,0.677-1.923,0.568-2.753-0.066c-0.546-0.437-0.852-1.027-0.983-1.705
		C35.598,25.129,35.751,23.971,36.21,22.856z M29.457,21.043c0.24-0.372,0.546-0.699,0.962-0.874c0.59-0.284,1.18-0.218,1.748,0.087
		c0.612,0.328,1.071,0.831,1.42,1.421c0.503,0.83,0.809,1.726,0.918,2.709c0.022,0.241,0.044,0.481,0.066,0.743
		c0,0.765-0.109,1.486-0.459,2.185c-0.197,0.415-0.481,0.765-0.83,1.071c-0.218,0.175-0.459,0.219-0.721,0.262
		c-0.809,0.087-1.464-0.197-2.054-0.721c-0.634-0.568-1.049-1.268-1.333-2.054c-0.306-0.831-0.459-1.661-0.415-2.535
		C28.802,22.507,28.998,21.742,29.457,21.043z M24.825,32.559c-1.246-0.831-1.967-2.011-2.294-3.431
		c-0.153-0.699-0.175-1.399-0.022-2.098c0.131-0.524,0.371-1.006,0.743-1.377c0.634-0.612,1.377-0.765,2.229-0.503
		c0.765,0.262,1.377,0.743,1.901,1.355c0.743,0.896,1.158,1.923,1.311,3.059c0.044,0.219,0.044,0.459,0.065,0.656
		c-0.022,0.503,0,0.961-0.131,1.42c-0.109,0.306-0.24,0.59-0.459,0.853c-0.328,0.437-0.787,0.633-1.311,0.656
		C26.114,33.214,25.436,32.974,24.825,32.559z M41.717,42.524c-0.393,0.372-0.852,0.612-1.377,0.699
		c-0.306,0.022-0.59,0.044-0.787,0.044c-0.765,0-1.398-0.131-2.01-0.393c-0.262-0.109-0.546-0.219-0.83-0.35
		c-0.699-0.306-1.442-0.306-2.185-0.087c-0.918,0.24-1.836,0.48-2.753,0.699c-0.612,0.131-1.246,0.109-1.879,0.109
		c-0.437,0-0.874-0.044-1.311-0.131c-0.721-0.197-1.355-0.546-1.836-1.158c-0.35-0.437-0.503-0.961-0.481-1.551
		c0.044-0.699,0.262-1.376,0.503-2.032c0.371-1.027,0.918-1.988,1.508-2.907c0.699-1.093,1.508-2.098,2.426-2.994
		c0.852-0.853,1.814-1.53,2.95-1.945c0.743-0.284,1.464-0.24,2.207,0.044c0.677,0.262,1.289,0.678,1.858,1.136
		c1.071,0.896,1.945,1.967,2.71,3.125c0.677,1.027,1.267,2.142,1.705,3.3c0.262,0.678,0.437,1.377,0.503,2.076
		C42.722,41.147,42.394,41.912,41.717,42.524z M45.803,34.133c-0.852,0.568-1.77,0.568-2.666,0.087
		c-0.896-0.503-1.442-1.289-1.53-2.316c-0.197-1.792,0.35-3.344,1.617-4.633c0.524-0.524,1.136-0.94,1.901-1.093
		c0.94-0.174,1.748,0.087,2.338,0.896c0.415,0.546,0.612,1.159,0.678,1.836c0.022,0.219,0.022,0.416,0.044,0.699
		C48.207,31.488,47.42,33.04,45.803,34.133z"/>
	<path class="st940" d="M118.441,37.476c-2.404-3.868-5.616-6.928-9.659-9.179c-4.065-2.25-8.697-3.343-13.942-3.278
		c-5.31,0-10.052,1.136-14.204,3.387c-4.152,2.251-7.386,5.31-9.724,9.134s-3.453,8.195-3.387,13.155
		c0.153,4.808,1.377,9.2,3.649,13.177c2.316,3.955,5.463,7.102,9.506,9.397c4.065,2.295,8.763,3.387,14.161,3.322
		c5.398-0.153,10.161-1.355,14.313-3.649c4.152-2.295,7.386-5.398,9.724-9.287c2.338-3.912,3.453-8.217,3.387-12.959
		C122.112,45.736,120.845,41.344,118.441,37.476z M100.303,58.345c-1.464,1.53-3.169,2.295-5.135,2.295
		c-1.967,0-3.671-0.765-5.135-2.295c-1.464-1.53-2.185-3.322-2.185-5.354c0-2.032,0.721-3.802,2.185-5.288
		c1.464-1.508,3.169-2.251,5.135-2.251c1.967,0,3.671,0.743,5.135,2.251c1.464,1.486,2.185,3.256,2.185,5.288
		C102.489,55.023,101.768,56.815,100.303,58.345z"/>
	<path class="st940" d="M165.97,54.193c-1.814,0-3.212,0.24-4.152,0.721c-0.94,0.459-1.726,1.027-2.338,1.683
		c-0.634,0.655-1.333,1.223-2.142,1.704c-0.809,0.459-1.967,0.699-3.496,0.699c-1.967,0-3.649-0.634-5.026-1.901
		c-1.377-1.289-2.076-3.06-2.076-5.311c0-2.185,0.721-3.933,2.142-5.244c1.42-1.311,3.059-1.967,4.961-1.967
		c1.595,0,2.819,0.349,3.671,1.049c0.83,0.677,1.551,1.464,2.185,2.338c0.612,0.874,1.377,1.661,2.294,2.36
		c0.896,0.678,2.229,1.027,3.977,1.027c3.212,0,5.551-0.699,7.058-2.12c1.486-1.42,2.229-3.387,2.229-5.856
		c0-2.994-0.962-5.879-2.885-8.675c-1.945-2.819-4.655-5.114-8.151-6.884c-3.496-1.792-7.583-2.688-12.238-2.688
		c-4.523,0-8.785,1.005-12.827,3.016c-4.043,1.988-7.321,4.873-9.834,8.632c-2.513,3.737-3.78,8.282-3.78,13.592
		c0,4.961,1.267,9.397,3.78,13.33c2.513,3.933,5.791,7.015,9.877,9.244c4.086,2.207,8.457,3.365,13.112,3.43
		c4.655,0,8.697-0.678,12.128-2.01c3.431-1.355,6.075-3.125,7.976-5.31c1.901-2.185,2.841-4.48,2.841-6.884
		c0-1.901-0.743-3.693-2.229-5.398C171.521,55.045,169.183,54.193,165.97,54.193z"/>
	<path class="st940" d="M192.631,76.265c-4.882,0-8.268-3.005-10.162-9.014c-1.895-6.009-2.84-15.715-2.84-29.118
		c0-7.502,0.254-14.112,0.765-19.832c0.509-5.717,1.693-10.198,3.551-13.439C185.802,1.622,188.696,0,192.631,0
		c2.84,0,5.006,0.839,6.5,2.513c1.493,1.676,2.549,4.043,3.169,7.102c0.618,3.059,0.965,6.703,1.038,10.926
		c0.071,4.225,0.109,8.888,0.109,13.985l0.328-0.218c3.642-2.475,7.175-4.606,10.599-6.393c3.423-1.784,6.556-2.677,9.397-2.677
		c2.112,0,3.879,0.492,5.299,1.476c1.42,0.983,2.495,2.223,3.223,3.714c0.727,1.494,1.093,3.005,1.093,4.535
		c0,2.769-0.984,5.282-2.95,7.54s-4.518,4.553-7.648,6.883c0.874,1.093,1.73,2.277,2.567,3.551c0.837,1.275,1.73,2.677,2.677,4.206
		c1.238,1.895,2.257,3.862,3.059,5.901c0.801,2.04,1.203,3.898,1.203,5.572c0,1.967-0.475,3.516-1.42,4.644
		c-0.948,1.13-2.114,1.931-3.497,2.404c-1.385,0.475-2.769,0.674-4.152,0.601c-2.114-0.145-4.225-1.164-6.338-3.059
		c-2.113-1.893-4.152-4.114-6.118-6.665c-0.874-1.093-1.731-2.241-2.567-3.442c-0.839-1.201-1.622-2.385-2.35-3.551
		c-1.093,0.437-2.149,0.802-3.169,1.093c-0.51,5.392-1.512,9.342-3.005,11.855C198.183,75.009,195.835,76.265,192.631,76.265z"/>
	<path class="st940" d="M262.995,76.484c-5.463,0-10.253-1.073-14.367-3.223c-4.117-2.148-7.321-5.097-9.615-8.85
		c-2.295-3.751-3.442-8.067-3.442-12.948c0-4.733,1.147-9.104,3.442-13.112c2.294-4.005,5.463-7.211,9.505-9.615
		c4.043-2.404,8.687-3.605,13.931-3.605c4.879,0,9.07,0.984,12.565,2.95c3.497,1.967,6.174,4.462,8.031,7.484
		c1.858,3.024,2.786,6.211,2.786,9.561c0,3.352-0.765,6.102-2.294,8.249c-1.53,2.15-3.516,3.789-5.955,4.917
		c-2.441,1.131-5.045,1.877-7.813,2.241c-2.769,0.365-5.427,0.419-7.976,0.163c-2.55-0.254-4.698-0.672-6.447-1.256
		c1.311,2.113,2.967,3.551,4.972,4.315c2.002,0.765,4.114,1.093,6.337,0.984c2.22-0.109,4.242-0.345,6.064-0.711
		c2.257-0.508,4.114-0.399,5.572,0.329c1.456,0.729,2.222,1.895,2.295,3.496c0.072,1.311-0.383,2.623-1.366,3.934
		c-0.984,1.311-2.751,2.422-5.3,3.332C271.371,76.03,267.73,76.484,262.995,76.484z M255.675,46.109
		c0.727,1.166,1.784,1.986,3.168,2.458c1.383,0.475,2.786,0.638,4.207,0.492c1.42-0.145,2.622-0.546,3.605-1.203
		c0.983-0.655,1.475-1.565,1.475-2.732c0-1.238-0.492-2.349-1.475-3.332c-0.984-0.984-2.532-1.475-4.644-1.475
		c-2.04,0-3.605,0.638-4.698,1.912C256.222,43.506,255.675,44.798,255.675,46.109z"/>
	<path class="st940" d="M323.2,76.484c-2.551,0-5.136-0.509-7.758-1.53c-2.622-1.019-4.971-2.513-7.047-4.479
		c-2.076-1.967-3.589-4.333-4.535-7.102c-0.655-1.82-1.13-4.078-1.42-6.775c-0.292-2.694-0.492-5.572-0.601-8.631
		c-0.11-3.06-0.164-6.046-0.164-8.96c-2.84-0.071-5.555-0.328-8.14-0.765c-2.586-0.437-4.698-1.257-6.337-2.458
		c-1.639-1.201-2.458-2.967-2.458-5.299c0-2.841,0.765-4.972,2.294-6.393c1.53-1.42,3.587-2.366,6.174-2.84
		c2.584-0.473,5.409-0.746,8.468-0.819c0.072-2.257,0.273-4.57,0.601-6.939c0.328-2.366,0.891-4.57,1.693-6.61
		c0.801-2.038,1.929-3.696,3.388-4.971C308.813,0.638,310.706,0,313.038,0c3.131,0,5.408,0.984,6.829,2.95
		c1.42,1.967,2.311,4.517,2.676,7.648c0.364,3.133,0.509,6.411,0.437,9.834c3.787-0.071,7.138,0.074,10.052,0.436
		c2.912,0.366,5.207,1.166,6.883,2.404c1.675,1.24,2.513,3.206,2.513,5.901c0,2.769-0.948,4.845-2.84,6.228
		c-1.895,1.384-4.371,2.313-7.43,2.786c-3.06,0.475-6.302,0.748-9.725,0.819c0,1.384-0.019,2.823-0.054,4.316
		c-0.037,1.494-0.054,3.005-0.054,4.534c0,4.152,0.29,7.102,0.874,8.851c0.436,1.31,1.038,2.149,1.802,2.513
		c0.765,0.365,1.73,0.564,2.896,0.601c1.164,0.037,2.584,0.273,4.262,0.711c1.674,0.365,2.986,1.256,3.933,2.676
		c0.945,1.421,1.42,3.223,1.42,5.409c0,2.478-1.294,4.408-3.879,5.791C331.048,75.793,327.57,76.484,323.2,76.484z"/>
	<path class="st940" d="M418.148,76.265c-6.921,0-13.22-1.401-18.902-4.206c-5.682-2.803-10.199-7.048-13.549-12.73
		c-3.35-5.682-5.026-12.784-5.026-21.306c0-5.026,0.874-9.814,2.623-14.367c1.748-4.552,4.206-8.613,7.375-12.183
		c3.168-3.568,6.9-6.373,11.199-8.413C406.165,1.021,410.899,0,416.072,0c6.482,0,12.164,1.184,17.045,3.551
		c4.879,2.368,8.687,5.591,11.418,9.669c2.732,4.08,4.097,8.632,4.097,13.658c0,1.968-0.383,3.843-1.147,5.627
		c-0.765,1.786-1.931,3.261-3.497,4.425c-1.567,1.166-3.588,1.749-6.064,1.749c-2.333,0-4.171-0.364-5.519-1.093
		c-1.349-0.728-2.477-1.621-3.387-2.677c-0.911-1.055-1.841-2.131-2.786-3.223c-0.948-1.093-2.114-2.003-3.497-2.732
		c-1.385-0.728-3.278-1.093-5.682-1.093c-2.259,0-4.334,0.584-6.228,1.748c-1.895,1.166-3.406,2.751-4.534,4.754
		c-1.13,2.004-1.693,4.28-1.693,6.829c0,3.788,1,7.102,3.005,9.943c2.002,2.841,4.861,4.262,8.577,4.262
		c2.913,0,5.226-0.437,6.938-1.311c1.711-0.874,3.169-1.875,4.371-3.005c1.203-1.129,2.514-2.131,3.934-3.005
		c1.42-0.874,3.259-1.311,5.518-1.311c3.204,0,5.627,1.057,7.266,3.169c1.639,2.114,2.311,4.698,2.021,7.757
		c-0.292,3.133-1.658,6.119-4.097,8.96c-2.441,2.84-5.719,5.154-9.834,6.938C428.181,75.374,423.464,76.265,418.148,76.265z"/>
	<path class="st940" d="M470.484,76.484c-3.57,0-6.829-0.546-9.779-1.639s-5.299-2.749-7.048-4.971
		c-1.748-2.222-2.622-5.044-2.622-8.468c0-2.913,0.874-5.39,2.622-7.43c1.749-2.039,4.097-3.607,7.048-4.699
		c2.95-1.093,6.209-1.639,9.779-1.639c2.112,0,4.043,0.164,5.791,0.492c1.749,0.328,2.95,0.711,3.605,1.147
		c0-1.674-0.693-3.15-2.075-4.425c-1.385-1.273-3.789-1.912-7.212-1.912c-1.603,0-2.86,0.128-3.769,0.383
		c-0.912,0.256-1.732,0.564-2.458,0.928c-0.73,0.365-1.549,0.674-2.458,0.928c-0.912,0.256-2.131,0.383-3.661,0.383
		c-2.259,0-4.061-0.601-5.409-1.803c-1.349-1.201-2.021-3.04-2.021-5.518c0-2.257,0.637-4.206,1.912-5.845
		c1.274-1.639,2.931-3.005,4.971-4.097c2.039-1.093,4.242-1.894,6.61-2.404c2.367-0.509,4.644-0.765,6.829-0.765
		c6.483,0,11.763,1.184,15.843,3.551c4.079,2.368,7.102,5.446,9.07,9.233c1.967,3.788,2.949,7.904,2.949,12.346
		c0,2.478-0.201,4.772-0.601,6.883c-0.401,2.114-0.928,3.753-1.585,4.917c1.02,0.874,1.803,1.895,2.35,3.059
		c0.546,1.166,0.819,2.369,0.819,3.607c0,2.04-0.674,3.842-2.021,5.408c-1.349,1.567-3.261,2.35-5.736,2.35
		c-1.895,0-3.388-0.29-4.48-0.874c-1.093-0.583-2.185-1.348-3.278-2.295c-1.748,1.021-3.679,1.803-5.791,2.35
		C476.565,76.211,473.833,76.484,470.484,76.484z M472.669,65.449c1.675,0,2.931-0.346,3.77-1.038
		c0.837-0.691,1.256-1.476,1.256-2.35s-0.419-1.656-1.256-2.349c-0.839-0.691-2.095-1.038-3.77-1.038
		c-1.603,0-2.84,0.347-3.715,1.038c-0.874,0.692-1.31,1.475-1.31,2.349s0.436,1.658,1.31,2.35
		C469.829,65.103,471.066,65.449,472.669,65.449z"/>
	<path class="st940" d="M516.047,76.484c-2.478,0-4.499-0.819-6.064-2.458c-1.567-1.639-2.751-3.841-3.551-6.61
		c-0.802-2.768-1.349-5.936-1.639-9.506c-0.292-3.568-0.437-7.247-0.437-11.035c0-2.549,0.054-5.153,0.164-7.813
		c0.109-2.658,0.473-5.116,1.093-7.375c0.618-2.257,1.674-4.097,3.168-5.518c1.493-1.42,3.623-2.131,6.393-2.131
		c1.966,0,3.751,0.456,5.353,1.366c1.602,0.911,2.623,2.277,3.059,4.097c1.675-1.53,3.806-2.64,6.393-3.332
		c2.584-0.691,5.261-1.038,8.03-1.038c2.33,0,4.698,0.566,7.102,1.693c2.404,1.13,4.442,2.677,6.119,4.644
		c1.674,1.967,2.513,4.19,2.513,6.666c0,2.113-0.784,4.115-2.35,6.009c-1.568,1.895-3.77,2.84-6.61,2.84
		c-1.24,0-2.259-0.164-3.059-0.492c-0.802-0.328-1.567-0.637-2.295-0.928c-0.729-0.29-1.603-0.437-2.622-0.437
		c-2.696,0-5.155,1.076-7.375,3.223c-2.223,2.149-3.332,5.045-3.332,8.687c0,1.895-0.055,3.952-0.164,6.173
		c-0.109,2.224-0.438,4.353-0.984,6.393c-0.546,2.04-1.512,3.697-2.895,4.971C520.671,75.847,518.668,76.484,516.047,76.484z"/>
	<path class="st940" d="M593.296,76.484c-2.551,0-5.136-0.509-7.758-1.53c-2.622-1.019-4.971-2.513-7.047-4.479
		c-2.076-1.967-3.589-4.333-4.535-7.102c-0.655-1.82-1.13-4.078-1.42-6.775c-0.292-2.694-0.492-5.572-0.601-8.631
		c-0.11-3.06-0.164-6.046-0.164-8.96c-2.84-0.071-5.555-0.328-8.14-0.765c-2.586-0.437-4.698-1.257-6.337-2.458
		c-1.639-1.201-2.458-2.967-2.458-5.299c0-2.841,0.765-4.972,2.294-6.393c1.53-1.42,3.587-2.366,6.174-2.84
		c2.584-0.473,5.409-0.746,8.468-0.819c0.071-2.257,0.273-4.57,0.601-6.939c0.328-2.366,0.891-4.57,1.693-6.61
		c0.801-2.038,1.929-3.696,3.388-4.971C578.909,0.638,580.802,0,583.135,0c3.131,0,5.408,0.984,6.829,2.95
		c1.42,1.967,2.311,4.517,2.676,7.648c0.364,3.133,0.509,6.411,0.438,9.834c3.787-0.071,7.138,0.074,10.052,0.436
		c2.912,0.366,5.207,1.166,6.883,2.404c1.675,1.24,2.513,3.206,2.513,5.901c0,2.769-0.948,4.845-2.84,6.228
		c-1.895,1.384-4.371,2.313-7.43,2.786c-3.06,0.475-6.302,0.748-9.725,0.819c0,1.384-0.019,2.823-0.054,4.316
		c-0.037,1.494-0.054,3.005-0.054,4.534c0,4.152,0.29,7.102,0.874,8.851c0.436,1.31,1.038,2.149,1.802,2.513
		c0.765,0.365,1.73,0.564,2.896,0.601c1.164,0.037,2.584,0.273,4.262,0.711c1.674,0.365,2.986,1.256,3.933,2.676
		c0.945,1.421,1.42,3.223,1.42,5.409c0,2.478-1.294,4.408-3.879,5.791C601.144,75.793,597.666,76.484,593.296,76.484z"/>
</g>
</svg>
